<svg width="28" height="26" viewBox="0 0 28 26" fill="none" xmlns="http://www.w3.org/2000/svg">
<path d="M26.2744 13.2525C26.2744 12.3173 26.1936 11.6348 26.0187 10.927H14.6455V15.1483H21.3213C21.1868 16.1974 20.46 17.7773 18.8448 18.8389L18.8222 18.9802L22.4182 21.5962L22.6673 21.6195C24.9554 19.6352 26.2744 16.7156 26.2744 13.2525Z" fill="#006FFD"/>
<path d="M14.6446 24.3749C17.9152 24.3749 20.6609 23.3637 22.6664 21.6196L18.8439 18.8389C17.821 19.5088 16.4481 19.9764 14.6446 19.9764C11.4413 19.9764 8.72253 17.9922 7.75336 15.2495L7.6113 15.2608L3.87214 17.9782L3.82324 18.1059C5.81521 21.8217 9.90687 24.3749 14.6446 24.3749Z" fill="#34A853"/>
<path d="M7.75443 15.2496C7.49871 14.5418 7.35071 13.7834 7.35071 12.9999C7.35071 12.2162 7.49871 11.4579 7.74098 10.7501L7.7342 10.5994L3.94817 7.83838L3.8243 7.89371C3.00331 9.43567 2.53223 11.1672 2.53223 12.9999C2.53223 14.8325 3.00331 16.564 3.8243 18.1059L7.75443 15.2496Z" fill="#FBBC05"/>
<path d="M14.6447 6.0233C16.9193 6.0233 18.4536 6.94594 19.3285 7.71696L22.7472 4.5825C20.6476 2.74987 17.9153 1.625 14.6447 1.625C9.90691 1.625 5.81522 4.17804 3.82324 7.89384L7.73993 10.7503C8.72256 8.00763 11.4413 6.0233 14.6447 6.0233Z" fill="#EB4335"/>
</svg>
