<svg xmlns="http://www.w3.org/2000/svg" xmlns:xlink="http://www.w3.org/1999/xlink" viewBox="0 0 400 300"><defs><clipPath id="a"><path d="M400,125a125,125,0,1,1-38.9-90.62c.13.31,20.53,7.46,20.53,7.46s-1,16.32-1,16.24A124.4,124.4,0,0,1,400,125Z" fill="none"/></clipPath><clipPath id="b"><path d="M250,175A125,125,0,1,0,10.94,226.23L11.22,251s12.25,0,14.62.1a125.07,125.07,0,0,0,161.5,32.25c26.67,6.16,52.86,3.52,56.21-23.89a124.26,124.26,0,0,0-1.82-39.7A124.62,124.62,0,0,0,250,175Z" fill="none"/></clipPath></defs><title>1242x2208_ic_lettutor_anytime_anywhere</title><g clip-path="url(#a)"><path d="M369.5,108.82l-19.42-6.3c-1.91-.62-3.34-3.22-3.17-5.78l3.76-57.11c.19-4.31,5-5.4,6.9-4.77L377,41.16c1.91.61,3.33,3.21,3.17,5.77l-3.76,57.12C376.24,106.6,371.5,109.73,369.5,108.82Z" fill="#0058c3"/><path d="M369.5,108.82l-19.42-6.3c-1.91-.62-3.34-3.22-3.17-5.78l3.76-57.11c.17-2.56,1.87-4.14,3.78-3.52l19.42,6.3c1.91.61,3.34,3.21,3.17,5.77l-3.76,57.12C373.12,107.85,371.41,109.44,369.5,108.82Z" fill="#3175de"/><path d="M375.71,48.2,372,104c-.13,1.89-1.38,3.07-2.78,2.61l-18.65-6c-1.41-.45-2.45-2.37-2.33-4.27L352,40.49c.12-1.89,1.37-3.07,2.78-2.61l18.65,6C374.78,44.38,375.83,46.3,375.71,48.2Z" fill="#cbe0ff"/><path d="M367.81,44.24,360,41.71a1.89,1.89,0,0,1-1-1.92v-.24c.06-.85.62-1.38,1.26-1.17L368,40.91a1.89,1.89,0,0,1,1.05,1.92v.24C369,43.92,368.45,44.45,367.81,44.24Z" fill="#3175de"/><path d="M240.25,106.81s-21.45,38.24-29.52,54.55c-1.37,2.77,40.73,10.6,29.88,19.95s-58.93,3.51-61.74-18.43c-2.19-17.13,30.28-70,38.89-71.59S240.25,106.81,240.25,106.81Z" fill="#ff6161"/><path d="M332.77,563.13c-5.37-7.47-19-13.13-19-13.13s15.26-110.45,3.76-210.18c-6-52.36-30.91-117.6-35.43-127.26-15.85,2.6-81.94-11.49-90.24-12.16-5.26,8.81-15.52,21.64-19.33,47-6,40,16.62,101.91,18.11,134,.41,8.88,12.57,165.8,12.57,165.8a17,17,0,0,1-.18,6.27c-.92,4.34-2.3,11.9-.85,12.72,9.43,5.29,50.86,4.4,45.49-3.07s-19-13.13-19-13.13,27.18-185,10-237.63c12.74,17.91,24,57.31,25.21,72.61,2.9,37,24.34,162.23,24.34,162.23a17,17,0,0,1-.17,6.27c-.92,4.34-2.3,11.9-.85,12.72C296.71,571.5,338.14,570.6,332.77,563.13Z" fill="#ff6161"/><path d="M251.83,110.74s6.41,36.13-4.13,50.68-20.62,8.31-26.91,7.16-5.5,1.76-11.28-1.93-25.27-18-27.67-26.32c-1.4-4.84,10.24-28.33,23-38.28C215.43,93.73,247.26,92.89,251.83,110.74Z" fill="#d8e5fc"/><path d="M333.25,513.59c1-43.08-2.81-102.87-10.28-167.63-6-52.37-36.33-123.74-40.85-133.4-15.85,2.6-81.94-11.49-90.24-12.16-5.26,8.81-15.52,21.64-19.33,47-6,40,10.73,221.55.64,267.18,25.61,9.86,57.23,9.17,67.51-1,6.92-56.67,10.39-163.31-1.95-201.22C251.49,330.28,250.8,366.74,252,382c2,24.91,10,90,7.61,134.65C286.65,533,328.45,523.23,333.25,513.59Z" fill="#08346f"/><path d="M236.93,87.22s2.16-13.47,3.6-19c1.25-4.8,2.93-7.22,5.31-8.35,5.12-2.42,8.39,29.47,6,30.78S236.93,87.22,236.93,87.22Z" fill="#faadad"/><path d="M255.85,46.18s5,10.07,6.34,15.75-1.37,12.43-6.8,14.27c-3.82,1.29-13.79-3.66-13.1-11.34S255.85,46.18,255.85,46.18Z" fill="#faadad"/><path d="M256.5,73.69C252.69,75,242.72,70,243.41,62.36a6.82,6.82,0,0,1,.2-1,7.87,7.87,0,0,0-1.32,3.52c-.69,7.68,9.28,12.63,13.1,11.34a10.61,10.61,0,0,0,6.44-7A9.86,9.86,0,0,1,256.5,73.69Z" fill="#ff8080"/><path d="M282.12,212.56c-3.4.56-9.12.34-16.08-.34-5.3,9.57-8.68,19.73-7.18,29,4.74,29.1,29.52,140.49,35.76,160.07,5.86,18.41-14.35,89.43-13.58,123,23.63,4,48.57-3.39,52.21-10.7,1-43.08-2.81-102.87-10.28-167.63C316.93,293.59,286.64,222.22,282.12,212.56Z" fill="#001633"/><path d="M284.91,219.19l-6.05-23.27a60.61,60.61,0,0,1,5.56-34.34c8.09-16.5,17.41-46.66,1.59-60.93-21-19-63.18-23.28-78.49,11.25-12.08,27.27-14.48,54.95-21.71,89.86C183.49,213,212,223.68,233,224.8,270.21,226.78,284.91,219.19,284.91,219.19Z" fill="#fff"/><path d="M278.86,195.92a60.66,60.66,0,0,1,5.56-34.35c8.1-16.49,17.42-46.66,1.59-60.92-5.41-4.88-7.66.53-15.54-2.16,1,3-3-2.21-2.57,3.43.83,11.62-14.53,50.45-13.08,85.13.53,12.7,1.55,25.95,2.62,37.66,19.36-1.35,27.47-5.52,27.47-5.52Z" fill="#d8e5fc"/><path d="M261.84,41.68a10.93,10.93,0,0,0-10.12-8.39c-5.33-.18-10.09-.83-20.26,7-7.6,5.82-5.73,31,7.35,36.14,5.77,2.28,13.4-8.77,14.89-12a63.21,63.21,0,0,0,4-15.18l2.84,3.05S263.7,48.19,261.84,41.68Z" fill="#144aaf"/><path d="M255.8,64.31A4.24,4.24,0,0,0,254,60.06c-2.35-1.39-3.81,1.64-2,5.9S255.77,68.9,255.8,64.31Z" fill="#ff8080"/><path d="M276.53,99s38,35.67,54.59,53.53c.51.55,29.95-55.13,37.25-37.2s-19.61,84.48-47.48,77.95c-13.6-3.19-39.13-29.8-56-52.14-10.14-13.39-15.37-22.51-14.86-26.83C251.35,102.74,276.53,99,276.53,99Z" fill="#ff8080"/><path d="M243.49,56.73c-6.73-.09-12.71-3.57-16.34-6.27-1,9.65,2.75,22.44,11.66,25.94,5.77,2.28,13.4-8.77,14.89-12a61.24,61.24,0,0,0,2.82-8.86A62,62,0,0,1,243.49,56.73Z" fill="#08346f"/><path d="M290.66,171.13a86.21,86.21,0,0,0,9.17-6.37A67.47,67.47,0,0,0,312.52,150l-40.61-.31C277.64,156.69,284.06,164,290.66,171.13Z" fill="#ff6969"/><path d="M359.42,111.24s.11-8-.24-10.22-1.21-14.29,1-14.29c4.09,0,3.8,9.31,5.29,11.65.9,1.4,5.39-.55,9-5.52,1.59-2.19,3.06-9.19,3.51-9.56.72-.59,1.76-.19,2.61.37,2.42,1.61,2.5,9.45,3.9,11.86s2.14,7.11-4,16.48S357.24,127.94,359.42,111.24Z" fill="#ff8080"/><path d="M280.32,94.23s37.12,16,40.91,33.57-7.59,20.89-12.66,24.8-2.35,5.27-9,7.1-14.31,8-19.33,7.61S252.15,133,248.39,120.06,264,85.71,280.32,94.23Z" fill="#fff"/><path d="M231.09,46.18s-13-8.36-23.62,0-3.88,11.35-3.88,23.95S183.67,78.52,184.45,89s23.27,9.49,25.08,20.35-18.57,8.33-11.88,18.17,34.65,3.63,37.63-14.9-13.07-24.61-7.12-27.78S239.2,47.91,231.09,46.18Z" fill="#144aaf"/></g><g clip-path="url(#b)"><path d="M114,146.16s-78.71,69.25-60.78,90.18,63-19.3,71.93-30.63S114,146.16,114,146.16Z" fill="#d8e5fc"/><path d="M233.6,268c2.64-19.7,1.84-67.69-13.61-87.55s-75-19.5-85.71,16.92-79.85,34.55-71.36,105.2C68.09,345.65,219.49,373.48,233.6,268Z" fill="#001633"/><path d="M219.66,211.84s4.58,34.49-.66,44.14S115.54,330.2,97.33,324.13s-32.83-15.45-30.62-30.9S78,252.4,101.2,241.64s45.25-32.47,47.28-46.63C152.23,168.87,214.14,158.6,219.66,211.84Z" fill="#3269a5"/><path d="M118.28,175.5a14.47,14.47,0,0,0-8.31-6.11s1.87,30.39,1.69,37.19c-.12,4.53-.08,9.62,0,12.52a110.78,110.78,0,0,0,13.5-13.39c1.42-1.82,2.1-4.58,2.25-7.94C124,188.51,119.93,178.13,118.28,175.5Z" fill="#98bdff"/><path d="M110.7,151.12c3.45-11.74,29.9-14.93,50.91-14,13,.55,29.92,5,36.8,11,37.89,33.12,5,118.33-5.08,133.6s-53.54,5.18-70.43-3.46-35-22.63-29.56-28.71,26.9-28.45,24.19-43.56S106.25,166.25,110.7,151.12Z" fill="#fff"/><path d="M93.34,249.51c5.47-6.08,26.9-28.45,24.19-43.56s-11.29-39.7-6.83-54.83c2-6.9,12-10.85,24.17-12.75-1.16,12.84-3.58,44.62-.59,59,3.55,17.09-.77,63.63-20.09,75.95C100.47,265,88.82,254.54,93.34,249.51Z" fill="#d8e5fc"/><path d="M147.26,273.55c-38.5-16.12-67.31-30.81-92.14-29.7S-67.64,347.3-61.85,361.09s22.68,21.8,25.82,18.77,82.81-71.46,92.81-92.15c0,0,47.17,39.64,94.08,33.11,34.67-4.83,42.29-29.7,40-36.41C188.88,278.55,155.31,276.92,147.26,273.55Z" fill="#08346f"/><path d="M73.05,287.07c-4.16-2.63-12.61-4.52-22,.39C38.57,294-12.69,406.37-6.13,415.35c5.77,7.9,26.21,13.88,34.21,10.84S82.71,310,82.71,310s12,2.21,12.05.84S78.13,290.28,73.05,287.07Z" fill="#001633"/><path d="M147.81,239.19l-83.48-6.66-48.89,9,80.92,6.44,52.45-8.12A1.26,1.26,0,0,0,147.81,239.19Z" fill="#3175de"/><path d="M96.36,247.94l2.24,6.67.34-.06c4-.76,42.19-8.16,48.74-9.43a1.26,1.26,0,0,0,1-1.15l.27-3.4a1.19,1.19,0,0,0-.17-.76Z" fill="#0058c3"/><path d="M93.75,245.57l42.5-5.54-46.18-3.69Z" fill="#cbe0ff"/><path d="M96.36,247.94,15.44,241.5.37,174.58a2.27,2.27,0,0,1,1.73-2.73h0a2.21,2.21,0,0,1,.68,0l76.15,6.07a2.27,2.27,0,0,1,2,1.77Z" fill="#3175de"/><path d="M50.43,208c.64,3-.87,5.8-3.39,6.35S42,212.93,41.32,210s.87-5.81,3.39-6.35S49.79,205,50.43,208Z" fill="#80b4fe"/><path d="M15.44,241.5l3.39,5.17a4.86,4.86,0,0,0,3.65,2.16l73.37,5.85a13.18,13.18,0,0,0,2.74-.07L96.35,248Z" fill="#0058c3"/><path d="M27.56,178.44l-15.24-1.21a5.35,5.35,0,0,0-5.76,4.91h0a5.52,5.52,0,0,0,.13,1.67l5,20.71a1.57,1.57,0,0,0,1.88,1.14h0a1.58,1.58,0,0,0,1.18-1.33c.77-7,2.26-15.54,5.06-17.38s6-4,8.52-5.67a1.56,1.56,0,0,0-.74-2.84Z" fill="#cbe0ff"/><path d="M214.66,204.93l-29.47-33.14s3.35,24.31,11.08,46.56a104.65,104.65,0,0,0,12.49,25.21,191.7,191.7,0,0,0,7-36.39Z" fill="#98bdff"/><path d="M206.14,269.86s-9.2,16.41-39.79,28.1S113,320.31,110,324.3s13.34,12.2,44.31,4.24S208.38,287.51,206.14,269.86Z" fill="#3269a5"/><path d="M193.61,149.37c16.4-5.42,57.11,51.35,49.94,110.11s-119.36,3.71-116.15-8c.68-2.47-1.21-9,4.93-9.62,22.83-2.23,71.47,8,75.83,3C215.31,236.74,163.53,159.31,193.61,149.37Z" fill="#fff"/><path d="M193.61,149.37a13.45,13.45,0,0,0-3.69,1.85c2.81,8.57,17.12,20.23,26.28,34.05,16.31,24.6,19.35,63.73,14.66,77.52S216,276,200,275.51c-14.79-.43-45.41-11.06-54.73-17.13-6.91-4.5-13.64-11.44-17.2-13.35-.75,2.23-.28,5.05-.67,6.49-3.21,11.67,109,66.72,116.15,8S210,144,193.61,149.37Z" fill="#d8e5fc"/><path d="M129.22,239.81c-3.58-1.13-7.35,1.07-11.4.43s-3.86,2.22-1,3.55a6.76,6.76,0,0,0,3.1.59c-1.64,2.32-9.42,7.94-9.42,7.94s.43.8,6.32.61,12.27-.9,14.62-3.86C132.91,247.2,132.81,241,129.22,239.81Z" fill="#ff8080"/><path d="M139.75,101.46S147,98.77,150.33,99s6-4.85,9.39-4,3.28,5.93.63,8.06,2,17.86-6,22S134.09,108.27,139.75,101.46Z" fill="#07d9c9"/><path d="M134,117.14s-5.76-.4-5.77-8c0-5,7-12.58,10.28-12.68s2.15,2.66,2.77,4.14c3.34,8,12.51,11,13.76,17.48s-6.79,10.08-9.74,8.87S134,117.14,134,117.14Z" fill="#144aaf"/><path d="M152.92,120.42l10.76,19.63c.57,3-14.23,14.37-19.71,11.39-1.6-.87-1.73-3.84-1-7.23l4.76-18.55Z" fill="#faadad"/><path d="M146.8,129.39c3.23-1.2,7.63-2.88,7.63-2.88a14.66,14.66,0,0,1-3.27,10.21,14,14,0,0,1-7.47,4.78Z" fill="#ff8080"/><path d="M146.9,113.5l6.79,10.88a7.82,7.82,0,0,1-3.13,10.45c-3,1.65-5,2.16-9.2,2.67-3.48.42-6-2.39-7.11-6.83a42.53,42.53,0,0,1-.75-14.49C134.29,109.25,142,106.74,146.9,113.5Z" fill="#faadad"/><path d="M148.15,118.79a11.43,11.43,0,0,0,.45-2.33c.15-1.5.72-3.7,2.84-2.38,3.08,1.92,1.85,9.88-1.93,10.12C146.71,124.38,147.54,120.7,148.15,118.79Z" fill="#faadad"/><path d="M141.44,124.7a21.19,21.19,0,0,1-6.7,1.87,2.69,2.69,0,0,0,2,1.87C138.57,129,141.26,128,141.44,124.7Z" fill="#fff"/><path d="M139.23,133.36c3.59-1.69,7.88,3.33,13.27-3.76,1-1.33,1.07-3.93,1-5.45l.16.23a7.84,7.84,0,0,1-3.14,10.46c-3,1.64-5,2.15-9.2,2.66a5.44,5.44,0,0,1-5.2-2.48C136.86,135,138.13,133.88,139.23,133.36Z" fill="#ff8080"/></g></svg>