<svg width="40" height="40" viewBox="0 0 40 40" fill="none" xmlns="http://www.w3.org/2000/svg">
<path d="M19.9998 1.66675C14.4602 1.66675 9.99984 6.12707 9.99984 11.6667V13.3334C8.1665 13.3334 6.6665 14.8334 6.6665 16.6667V33.3334C6.6665 35.1667 8.1665 36.6667 9.99984 36.6667H29.9998C31.8332 36.6667 33.3332 35.1667 33.3332 33.3334V16.6667C33.3332 14.8334 31.8332 13.3334 29.9998 13.3334V11.6667C29.9998 6.12707 25.5395 1.66675 19.9998 1.66675ZM19.9998 5.00008C23.7935 5.00008 26.6665 7.8731 26.6665 11.6667V13.3334H13.3332V11.6667C13.3332 7.8731 16.2062 5.00008 19.9998 5.00008ZM19.9998 21.6667C21.8332 21.6667 23.3332 23.1667 23.3332 25.0001C23.3332 26.8334 21.8332 28.3334 19.9998 28.3334C18.1665 28.3334 16.6665 26.8334 16.6665 25.0001C16.6665 23.1667 18.1665 21.6667 19.9998 21.6667Z" fill="black"/>
</svg>
